<svg xmlns="http://www.w3.org/2000/svg" xmlns:xlink="http://www.w3.org/1999/xlink" viewBox="0 0 805.27 386.12"><defs><style>.cls-1{fill:none;}.cls-2{isolation:isolate;}.cls-3{clip-path:url(#clip-path);}.cls-4{fill:#8a8a8a;}.cls-5{fill:#ababab;}.cls-6{fill:#b4b4b4;}.cls-7{clip-path:url(#clip-path-2);}.cls-8{fill:#858585;}.cls-9{clip-path:url(#clip-path-3);}.cls-10{fill:#a8a8a8;}.cls-11{clip-path:url(#clip-path-4);}.cls-12{clip-path:url(#clip-path-5);}.cls-13{fill:#a3a3a3;}.cls-14{fill:#9e9e9e;}.cls-15{fill:#969696;}.cls-16{clip-path:url(#clip-path-6);}.cls-17{fill:#999;}.cls-18{fill:#949494;}.cls-19{fill:#8f8f8f;}.cls-20{clip-path:url(#clip-path-7);}.cls-21{clip-path:url(#clip-path-8);}.cls-22{fill:#9a9a9a;}.cls-23{clip-path:url(#clip-path-9);}.cls-24{clip-path:url(#clip-path-10);}.cls-25{fill:#b1b1b1;}.cls-26{fill:#8e8e8e;}.cls-27{clip-path:url(#clip-path-11);}.cls-28{clip-path:url(#clip-path-12);}.cls-29{clip-path:url(#clip-path-13);}.cls-30{clip-path:url(#clip-path-14);}.cls-31{clip-path:url(#clip-path-15);}.cls-32{clip-path:url(#clip-path-16);}.cls-33{clip-path:url(#clip-path-17);}.cls-34{fill:#dfdfdf;}.cls-35{clip-path:url(#clip-path-18);}.cls-36{clip-path:url(#clip-path-19);}.cls-37{clip-path:url(#clip-path-20);}.cls-38{clip-path:url(#clip-path-21);}.cls-39{clip-path:url(#clip-path-22);}.cls-40{clip-path:url(#clip-path-23);}.cls-41{clip-path:url(#clip-path-24);}.cls-42{fill:#848484;}.cls-43{clip-path:url(#clip-path-25);}.cls-44{fill:gray;}.cls-45{clip-path:url(#clip-path-26);}.cls-46{clip-path:url(#clip-path-27);}.cls-47{clip-path:url(#clip-path-28);}.cls-48{clip-path:url(#clip-path-29);}.cls-49{clip-path:url(#clip-path-30);}.cls-50{clip-path:url(#clip-path-31);}.cls-51{fill:#868686;}.cls-52{clip-path:url(#clip-path-32);}.cls-53{clip-path:url(#clip-path-33);}.cls-54{clip-path:url(#clip-path-34);}.cls-55{clip-path:url(#clip-path-35);}.cls-56{clip-path:url(#clip-path-36);}.cls-57{clip-path:url(#clip-path-37);}.cls-58{clip-path:url(#clip-path-38);}.cls-59{clip-path:url(#clip-path-39);}.cls-60{clip-path:url(#clip-path-40);}.cls-61{clip-path:url(#clip-path-41);}.cls-62{clip-path:url(#clip-path-42);}.cls-63{clip-path:url(#clip-path-43);}.cls-64{clip-path:url(#clip-path-44);}.cls-65{clip-path:url(#clip-path-45);}.cls-66{clip-path:url(#clip-path-46);}.cls-67{clip-path:url(#clip-path-47);}.cls-68{clip-path:url(#clip-path-48);}.cls-69{clip-path:url(#clip-path-49);}.cls-70{clip-path:url(#clip-path-50);}.cls-71{clip-path:url(#clip-path-51);}.cls-72{fill:#b5b5b5;}.cls-73{clip-path:url(#clip-path-52);}.cls-74{clip-path:url(#clip-path-53);}.cls-75{clip-path:url(#clip-path-54);}.cls-76{clip-path:url(#clip-path-55);}.cls-77{clip-path:url(#clip-path-56);}.cls-78{clip-path:url(#clip-path-57);}.cls-79{clip-path:url(#clip-path-58);}</style><clipPath id="clip-path"><path class="cls-1" d="M693.17,303.14l-22.79-12.4c5.16-13.23,10.37-26.59,15.5-39.84l22.79,12.4C703.54,276.55,698.34,289.91,693.17,303.14Z"/></clipPath><clipPath id="clip-path-2"><path class="cls-1" d="M781.52,66,758.73,53.58C764.4,37.9,770.14,21.9,775.82,5.92l22.79,12.4C792.93,34.3,787.19,50.3,781.52,66Z"/></clipPath><clipPath id="clip-path-3"><path class="cls-1" d="M528.77,331.49,506,319.09c16.92-1.87,33-3.88,48.48-6,42.88-6,80.55-13.3,115.92-22.3l22.79,12.4c-35.37,9-73,16.27-115.91,22.3C561.82,327.61,545.7,329.62,528.77,331.49Z"/></clipPath><clipPath id="clip-path-4"><path class="cls-1" d="M685.88,250.9c7.4,4.11,15.28,8.4,22.79,12.4-36.24,28.76-74.74,45.91-117.44,52.38l-22.8-12.4C611.14,296.81,649.63,279.66,685.88,250.9Z"/></clipPath><clipPath id="clip-path-5"><path class="cls-1" d="M600.86,309.22l-22.79-12.4c40.4-7.81,77-25.75,111.56-54.63l22.79,12.4C677.86,283.47,641.26,301.41,600.86,309.22Z"/></clipPath><clipPath id="clip-path-6"><path class="cls-1" d="M589.93,311.08l-22.79-12.4c28-17.21,57.56-48,88.55-91.94,14.69-20.34,29.72-43.59,45.63-68.19,18.46-28.58,37.56-58.11,57.41-85L781.52,66c-19.85,26.87-38.95,56.4-57.41,85-15.91,24.6-30.94,47.85-45.63,68.18C647.49,263.07,617.93,293.87,589.93,311.08Z"/></clipPath><clipPath id="clip-path-7"><path class="cls-1" d="M533.17,320.14l-22.79-12.4c21.93-12.47,51.1-31.83,83.78-70.71,30.28-35.09,63.1-86.28,99.78-144.67l22.79,12.4c-36.68,58.39-69.5,109.58-99.78,144.67C584.28,288.31,555.1,307.67,533.17,320.14Z"/></clipPath><clipPath id="clip-path-8"><path class="cls-1" d="M528.77,331.49,506,319.09a94.65,94.65,0,0,0,4.4-11.35l22.79,12.4A93,93,0,0,1,528.77,331.49Z"/></clipPath><clipPath id="clip-path-9"><path class="cls-1" d="M530.62,316.43,507.82,304c21.64-12.23,50.67-31.25,83.27-70,29.41-34.1,61.38-83.71,97-140.41l22.8,12.4c-35.65,56.7-67.61,106.31-97,140.41C581.28,285.18,552.25,304.2,530.62,316.43Z"/></clipPath><clipPath id="clip-path-10"><path class="cls-1" d="M523,333.17l-22.8-12.39c2.07-3.4,4.19-8.48,6.31-15.14L529.33,318C527.21,324.69,525.09,329.78,523,333.17Z"/></clipPath><clipPath id="clip-path-11"><path class="cls-1" d="M775.82,5.92a5.16,5.16,0,0,1,1.29.72c1.48.82,5.57,3.07,11.54,6.31s10,5.37,10,5.37c-48.09,8.09-99,15.89-156.66,24l-22.79-12.4C676.85,21.81,727.73,14,775.82,5.92Z"/></clipPath><clipPath id="clip-path-12"><path class="cls-1" d="M485.52,325.94l-22.79-12.4c15.53-8.82,25.27-18.24,28.88-40.2l22.79,12.4C510.79,307.7,501.05,317.12,485.52,325.94Z"/></clipPath><clipPath id="clip-path-13"><path class="cls-1" d="M573.35,125.57l-22.79-12.4a474.14,474.14,0,0,0,57.4-4.4A375.79,375.79,0,0,0,692,87.19l22.8,12.39a375.21,375.21,0,0,1-84.08,21.59A474.14,474.14,0,0,1,573.35,125.57Z"/></clipPath><clipPath id="clip-path-14"><path class="cls-1" d="M618.84,30h0l.23.12,22.55,12.27c-19.43,2.73-39.62,5.49-60.75,8.32L558.14,38.3l22.75,12.38h-.07L558,38.29C579.18,35.46,599.4,32.69,618.84,30Z"/></clipPath><clipPath id="clip-path-15"><path class="cls-1" d="M573.35,125.57l-22.79-12.4c2.48-23,5-48.15,7.47-74.88l22.79,12.4C578.33,77.42,575.83,102.58,573.35,125.57Z"/></clipPath><clipPath id="clip-path-16"><path class="cls-1" d="M578.82,46.15,556,33.75c21.9-2.92,42.81-5.78,62.89-8.6C678,16.84,730,8.86,779.09.57L801.89,13c-49.12,8.29-101.07,16.27-160.18,24.58C621.63,40.37,600.73,43.23,578.82,46.15Z"/></clipPath><clipPath id="clip-path-17"><path class="cls-1" d="M568.67,128.06l-22.79-12.4c2.62-24.24,5.29-51,7.92-79.43l22.79,12.4C574,77.1,571.29,103.82,568.67,128.06Z"/></clipPath><clipPath id="clip-path-18"><path class="cls-1" d="M514.4,285.74l-22.79-12.4c8-48.29,16.1-125.48,24.17-229.48l22.79,12.4C530.5,160.26,522.36,237.45,514.4,285.74Z"/></clipPath><clipPath id="clip-path-19"><path class="cls-1" d="M381.47,339.76l-22.79-12.4c11.33,6.16,24.6,8.12,40,5.95l.89-.13c24-3.66,45.22-10.27,63.14-19.64l22.79,12.4c-17.92,9.37-39.16,16-63.13,19.64l-.9.13C406.07,347.87,392.8,345.92,381.47,339.76Z"/></clipPath><clipPath id="clip-path-20"><path class="cls-1" d="M337.2,307.57a96.06,96.06,0,0,1-5.31-8.21l22.79,12.4q2.56,4.41,5.31,8.21c6.23,8.79,13.37,15.39,21.51,19.81l-22.79-12.4C350.57,323,343.43,316.37,337.2,307.57Z"/></clipPath><clipPath id="clip-path-21"><path class="cls-1" d="M482.85,63.42,460.06,51c20.51-2.61,38.79-5,55.72-7.16l22.79,12.4C521.64,58.46,503.37,60.81,482.85,63.42Z"/></clipPath><clipPath id="clip-path-22"><path class="cls-1" d="M447.36,260.19C451.55,206.33,455.82,136,460.06,51l22.79,12.4c-4.24,84.94-8.51,155.31-12.69,209.17-1.07,12.08-5.11,21.31-12,27.49-4.91,4.38-11.15,7.1-18.67,8.16a64.32,64.32,0,0,1-18-.3,50.9,50.9,0,0,1-17-5.55L381.63,290a51,51,0,0,0,17,5.55,64.32,64.32,0,0,0,18,.3c7.51-1.06,13.76-3.78,18.67-8.16C442.26,281.5,446.3,272.27,447.36,260.19Z"/></clipPath><clipPath id="clip-path-23"><path class="cls-1" d="M480.78,58.88,458,46.48c22.35-2.84,42.06-5.38,60.23-7.74L541,51.14C522.84,53.5,503.14,56,480.78,58.88Z"/></clipPath><clipPath id="clip-path-24"><path class="cls-1" d="M406.87,298l-22.8-12.4a47.34,47.34,0,0,0,15.73,5.11,60.5,60.5,0,0,0,16.9.3c6.57-.92,12-3.24,16.11-7,5.79-5.17,9.19-13.14,10.12-23.7,4.22-54.28,8.52-125.38,12.8-211.32l22.79,12.4c-4.27,85.94-8.58,157-12.79,211.32-.94,10.56-4.34,18.53-10.13,23.7-4.15,3.71-9.54,6-16.11,6.95a60.5,60.5,0,0,1-16.9-.3A47.28,47.28,0,0,1,406.87,298Z"/></clipPath><clipPath id="clip-path-25"><path class="cls-1" d="M267,356.34l-22.79-12.4c12.08-1.58,24.49-3.06,37.81-4.5l22.79,12.4C291.49,353.28,279.08,354.76,267,356.34Z"/></clipPath><clipPath id="clip-path-26"><path class="cls-1" d="M308.28,216.23c-6.38-70.51-12.9-118.76-19.39-143.55l22.79,12.4c6.49,24.79,13,73,19.39,143.55,3,32.32,11.64,62.51,23.61,83.13l-22.79-12.4C319.92,278.74,311.26,248.55,308.28,216.23Z"/></clipPath><clipPath id="clip-path-27"><path class="cls-1" d="M379.11,344.22l-22.8-12.4c-8.61-4.69-16.16-11.67-22.75-21C318.44,290,307.33,255,303.84,217.33l22.8,12.4c3.48,37.71,14.6,72.67,29.71,93.51C362.94,332.55,370.5,339.53,379.11,344.22Z"/></clipPath><clipPath id="clip-path-28"><path class="cls-1" d="M244.21,343.94q-10-26.32-20.55-49.1,11.39,6.21,22.79,12.4Q257,330,267,356.34C260.17,352.62,249.33,349.8,244.21,343.94Z"/></clipPath><clipPath id="clip-path-29"><path class="cls-1" d="M404.43,302.39,381.63,290c-17.56-9.55-27.73-29.81-29.1-58.81-2.77-66.09-5.61-121.77-8.43-165.54L366.9,78c2.81,43.77,5.65,99.45,8.43,165.54C376.69,272.58,386.86,292.83,404.43,302.39Z"/></clipPath><clipPath id="clip-path-30"><path class="cls-1" d="M223.66,294.84q-3.56-7.65-7.15-14.91l22.8,12.4q3.58,7.25,7.14,14.91Q235.05,301,223.66,294.84Z"/></clipPath><clipPath id="clip-path-31"><path class="cls-1" d="M216.38,279.65q11.38,6.21,22.79,12.4l.14.28-22.8-12.4Z"/></clipPath><clipPath id="clip-path-32"><path class="cls-1" d="M311.68,85.08l-22.79-12.4c16.62-2.14,34.3-4.4,55.21-7L366.9,78C346,80.68,328.3,82.94,311.68,85.08Z"/></clipPath><clipPath id="clip-path-33"><path class="cls-1" d="M308.75,80.66,286,68.26c18-2.33,37.17-4.77,60.25-7.69L369,73C345.93,75.88,326.78,78.33,308.75,80.66Z"/></clipPath><clipPath id="clip-path-34"><path class="cls-1" d="M326.64,229.73l-22.8-12.4c-6.61-73.19-13.36-122.2-20-145.68l22.79,12.4C313.27,107.53,320,156.54,326.64,229.73Z"/></clipPath><clipPath id="clip-path-35"><path class="cls-1" d="M136.74,380.57,114,368.17c12.46-3.16,25.39-6.16,38.51-8.92l22.8,12.4C162.13,374.41,149.2,377.41,136.74,380.57Z"/></clipPath><clipPath id="clip-path-36"><path class="cls-1" d="M193.05,89.41l3.81,2.07,10.24,5.57,1.31.72,1.31.71,5,2.7c.34.19.76.63,1.15.63,7.91,11.12,15.57,34.34,23.21,70.22,2.74,12.2,11.56,54.24,11.51,55.5l-22.79-12.4c0-1.25-8.77-43.3-11.51-55.5C208.62,123.75,201,100.53,193.05,89.41Z"/></clipPath><clipPath id="clip-path-37"><path class="cls-1" d="M184.08,87.34l22.79,12.4c6.58,3.57,16.34,20,27.85,74,2.43,10.84,5.91,27.44,8.38,39.5l-22.79-12.4c-2.48-12.06-5.95-28.66-8.39-39.5C200.41,107.3,190.66,90.91,184.08,87.34Z"/></clipPath><clipPath id="clip-path-38"><path class="cls-1" d="M245.39,228.45l-22.8-12.4c-1.74-3.84-14.52-29.89-25.08-42.51l22.79,12.4C230.86,198.56,243.64,224.61,245.39,228.45Z"/></clipPath><clipPath id="clip-path-39"><path class="cls-1" d="M304.81,351.84,282,339.44C268.62,186,255,98.33,241.56,78.86l22.8,12.4C277.81,110.73,291.41,198.36,304.81,351.84Z"/></clipPath><clipPath id="clip-path-40"><path class="cls-1" d="M193.05,89.41a29.1,29.1,0,0,0-3-3.6l22.8,12.4a29.08,29.08,0,0,1,3,3.6l-20.14-11-1.32-.72-.52-.28-.17-.09-.33-.18-.16-.09Z"/></clipPath><clipPath id="clip-path-41"><path class="cls-1" d="M190.07,85.81c16.43-2.27,33.35-4.55,51.49-7l22.8,12.4c-18.15,2.4-35.07,4.68-51.49,6.95Z"/></clipPath><clipPath id="clip-path-42"><path class="cls-1" d="M216.38,279.65C192.6,231.79,167,197.21,139.86,176.3q11.38,6.21,22.79,12.4c27.15,20.91,52.74,55.49,76.52,103.35Q227.77,285.86,216.38,279.65Z"/></clipPath><clipPath id="clip-path-43"><path class="cls-1" d="M206.11,94.33l-22.8-12.4c18.89-2.61,38.33-5.24,59.43-8l22.8,12.4C244.44,89.09,225,91.72,206.11,94.33Z"/></clipPath><clipPath id="clip-path-44"><path class="cls-1" d="M146.61,129.18l22.8,12.4c18.47,10,35.21,24.65,50.89,44.36l-22.79-12.4C181.83,153.83,165.09,139.22,146.61,129.18Z"/></clipPath><clipPath id="clip-path-45"><path class="cls-1" d="M139.86,176.3a133.11,133.11,0,0,0-16.55-10.94l22.79,12.4a132.37,132.37,0,0,1,16.55,10.94Q151.25,182.51,139.86,176.3Z"/></clipPath><clipPath id="clip-path-46"><path class="cls-1" d="M263.4,360.1l-22.79-12.4c-35.52-93.76-75.81-153.64-119.77-178l22.79,12.4C187.59,206.46,227.88,266.34,263.4,360.1Z"/></clipPath><clipPath id="clip-path-47"><path class="cls-1" d="M123.31,165.36c-7.25-4.65-15.94-9.82-20.47-12.49l22.79,12.4h0l-22.72-12.36,22.72,12.36c4.54,2.67,13.22,7.83,20.46,12.48Z"/></clipPath><clipPath id="clip-path-48"><path class="cls-1" d="M143.63,182.11l-22.79-12.4c-8.4-5.38-18.94-11.63-25.4-15.37l22.79,12.4C124.69,170.48,135.23,176.73,143.63,182.11Z"/></clipPath><clipPath id="clip-path-49"><path class="cls-1" d="M102.84,152.87c-4.8-2.83-7.61-4.48-9.32-5.41l22.79,12.4c1.72.93,4.52,2.58,9.32,5.41Z"/></clipPath><clipPath id="clip-path-50"><path class="cls-1" d="M175.26,371.65l-22.8-12.4C136.9,289.12,121.11,231.84,105.51,189c-5.35-15.21-13.78-31.51-16.54-36.58l22.8,12.4c2.75,5.07,11.18,21.37,16.54,36.58C143.9,244.24,159.69,301.52,175.26,371.65Z"/></clipPath><clipPath id="clip-path-51"><path class="cls-1" d="M94.26,147.9l22.8,12.4c-2.46-1.33-3.29-1.56-4.07-1.41l-22.8-12.4C91,146.34,91.81,146.57,94.26,147.9Z"/></clipPath><clipPath id="clip-path-52"><path class="cls-1" d="M134.73,123.44q6.06,2.57,11.86,5.73l22.8,12.4q-5.82-3.16-11.87-5.73c-15.83-6.94-32.23-10.53-49.59-14.34-6.28-1.37-12.75-2.8-19.29-4.4L65.85,104.7c6.53,1.6,13,3,19.29,4.4C102.5,112.91,118.9,116.5,134.73,123.44Z"/></clipPath><clipPath id="clip-path-53"><path class="cls-1" d="M65.85,104.7a9.33,9.33,0,0,1,.88.48l.93.51,2,1.06,1,.54,1,.53.93.51.88.47,15.25,8.3-1.76-.43-22.79-12.4Z"/></clipPath><clipPath id="clip-path-54"><path class="cls-1" d="M149,124.79l22.79,12.4q-6-3.25-12.2-5.89c-16.14-7.07-32.72-10.71-50.27-14.55-6.94-1.52-14.11-3.1-22.11-5L64.44,99.4c8,1.85,15.17,3.43,22.11,4.95,17.55,3.84,34.12,7.48,50.27,14.55Q143,121.54,149,124.79Z"/></clipPath><clipPath id="clip-path-55"><path class="cls-1" d="M114,368.17C78.39,281,42.34,195.37,6.76,113.58L29.55,126c35.58,81.79,71.63,167.41,107.19,254.59Z"/></clipPath><clipPath id="clip-path-56"><path class="cls-1" d="M64.09,104.27a10.27,10.27,0,0,1,2.65,1.45l2.82,1.54,7.4,4,9.92,5.38c-19.52,3.06-38.78,6.19-57.33,9.31L6.76,113.58C25.31,110.46,44.57,107.33,64.09,104.27Z"/></clipPath><clipPath id="clip-path-57"><path class="cls-1" d="M133.27,384.56l-22.79-12.4C74.28,283.37,37.56,196.19,1.35,113l22.79,12.4C60.35,208.58,97.07,295.77,133.27,384.56Z"/></clipPath><clipPath id="clip-path-58"><path class="cls-1" d="M26.12,121.76,3.32,109.37C23,106,43.59,102.68,64.44,99.4l22.79,12.4C66.39,115.08,45.82,118.42,26.12,121.76Z"/></clipPath></defs><title>nuzlogo</title><g id="Layer_2" data-name="Layer 2"><g id="Layer_1-2" data-name="Layer 1"><g class="cls-2"><g class="cls-2"><g class="cls-3"><g class="cls-2"><path class="cls-4" d="M693.17,303.14l-22.79-12.4c5.16-13.23,10.37-26.59,15.5-39.84l22.79,12.4c-5.13,13.25-10.33,26.61-15.5,39.84"/></g></g></g><polygon class="cls-5" points="712.42 254.59 689.63 242.19 695.86 236.99 718.66 249.38 712.42 254.59"/><polygon class="cls-6" points="801.89 12.97 779.09 0.57 782.48 0 805.27 12.4 801.89 12.97"/><g class="cls-2"><g class="cls-7"><g class="cls-2"><path class="cls-8" d="M781.52,66,758.73,53.58C764.4,37.9,770.14,21.9,775.82,5.92l22.79,12.4c-5.68,16-11.42,32-17.09,47.65"/></g></g></g><polygon points="716.73 104.76 693.94 92.36 695.54 85.83 718.33 98.23 716.73 104.76"/><g class="cls-2"><g class="cls-9"><g class="cls-2"><path class="cls-10" d="M528.77,331.49,506,319.09c16.92-1.87,33-3.88,48.48-6,42.88-6,80.55-13.3,115.92-22.3l22.79,12.4c-35.37,9-73,16.27-115.91,22.3-15.44,2.17-31.56,4.18-48.49,6.05"/></g></g></g><g class="cls-2"><g class="cls-11"><g class="cls-2"><path d="M591.23,315.68l-22.8-12.4a235.64,235.64,0,0,0,65.72-19.93l22.79,12.4a235.58,235.58,0,0,1-65.71,19.93"/><path d="M656.94,295.75l-22.79-12.4a253.77,253.77,0,0,0,36.41-21.09l22.8,12.4a254.81,254.81,0,0,1-36.42,21.09"/><path d="M693.36,274.66l-22.8-12.4q7.73-5.34,15.32-11.36l22.79,12.4q-7.59,6-15.31,11.36"/></g></g></g><g class="cls-2"><g class="cls-12"><g class="cls-2"><path class="cls-10" d="M600.86,309.22l-22.79-12.4a230.57,230.57,0,0,0,54.78-17.88l22.79,12.4a230.28,230.28,0,0,1-54.78,17.88"/><path class="cls-13" d="M655.64,291.34l-22.79-12.4a250.67,250.67,0,0,0,35.77-20.72l22.79,12.4a249.57,249.57,0,0,1-35.77,20.72"/><path class="cls-14" d="M691.41,270.62l-22.79-12.4q10.64-7.37,21-16l22.79,12.4q-10.36,8.67-21,16"/></g></g></g><polygon class="cls-6" points="714.83 99.58 692.03 87.19 695.54 85.83 718.33 98.23 714.83 99.58"/><polygon points="587.25 316.28 564.45 303.88 568.43 303.28 591.23 315.68 587.25 316.28"/><polygon class="cls-15" points="587.24 316.28 564.45 303.88 567.13 298.68 589.93 311.08 587.24 316.28"/><g class="cls-2"><g class="cls-16"><g class="cls-2"><path class="cls-13" d="M589.93,311.08l-22.79-12.4q3.63-2.24,7.3-4.77l22.8,12.4q-3.68,2.54-7.31,4.77"/><path class="cls-14" d="M597.24,306.31l-22.8-12.4a209.46,209.46,0,0,0,20.91-16.68l22.79,12.4a210.54,210.54,0,0,1-20.9,16.68"/><path class="cls-17" d="M618.14,289.63l-22.79-12.4a318.39,318.39,0,0,0,25.48-26l22.8,12.4a318.44,318.44,0,0,1-25.49,25.95"/><path class="cls-18" d="M643.63,263.68l-22.8-12.4a521.56,521.56,0,0,0,34.86-44.54q2.94-4.08,5.91-8.31l22.79,12.4q-3,4.23-5.91,8.3a523.81,523.81,0,0,1-34.85,44.55"/><path class="cls-19" d="M684.39,210.83l-22.79-12.4c12.81-18.27,25.93-38.57,39.72-59.88C715.81,116.11,730.7,93.09,746,71.23l22.79,12.4c-15.33,21.86-30.22,44.88-44.71,67.32-13.78,21.31-26.91,41.61-39.72,59.88"/><path class="cls-18" d="M768.82,83.63,746,71.23q6.3-9,12.7-17.65L781.52,66q-6.4,8.67-12.7,17.66"/></g></g></g><g class="cls-2"><g class="cls-20"><g class="cls-2"><path d="M533.17,320.14l-22.79-12.4c6.92-3.93,14.55-8.55,22.8-14.25L556,305.89c-8.24,5.7-15.88,10.32-22.8,14.25"/><path d="M556,305.89l-22.79-12.4a282.26,282.26,0,0,0,28.26-22.4l22.8,12.4A283.43,283.43,0,0,1,556,305.89"/><path d="M584.24,283.49l-22.8-12.4a331.1,331.1,0,0,0,26.65-27l22.79,12.4a329.47,329.47,0,0,1-26.64,27"/><path d="M610.88,256.48l-22.79-12.4c2-2.28,4-4.62,6.07-7.05,11.78-13.65,24-29.75,36.58-47.76l22.8,12.4c-12.63,18-24.8,34.1-36.59,47.76-2,2.43-4.06,4.77-6.07,7.05"/><path d="M653.54,201.67l-22.8-12.4C650.57,161,671.53,128,693.94,92.36l22.79,12.4c-22.4,35.67-43.37,68.64-63.19,96.91"/></g></g></g><g class="cls-2"><g class="cls-21"><g class="cls-2"><path d="M528.77,331.49,506,319.09c.95-2,1.89-4.25,2.83-6.8l22.79,12.4c-.94,2.55-1.88,4.81-2.83,6.8"/><path d="M531.6,324.69l-22.79-12.4c.52-1.43,1.05-2.94,1.57-4.55l22.79,12.4c-.52,1.61-1,3.12-1.57,4.55"/></g></g></g><polygon class="cls-22" points="520.58 337.18 497.79 324.78 500.23 320.77 523.03 333.18 520.58 337.18"/><g class="cls-2"><g class="cls-23"><g class="cls-2"><path class="cls-13" d="M530.62,316.43,507.82,304c7-4,14.84-8.66,23.3-14.52l22.8,12.4c-8.46,5.86-16.27,10.55-23.3,14.52"/><path class="cls-14" d="M553.92,301.91l-22.8-12.4a275.75,275.75,0,0,0,27.78-22l22.79,12.4a275.72,275.72,0,0,1-27.77,22"/><path class="cls-17" d="M581.69,279.91l-22.79-12.4a327,327,0,0,0,26.22-26.58l22.79,12.4a327,327,0,0,1-26.22,26.58"/><path class="cls-18" d="M607.91,253.33l-22.79-12.4q3-3.36,6-6.93c11.65-13.5,23.7-29.44,36.21-47.29l22.8,12.4c-12.52,17.85-24.57,33.78-36.22,47.29q-3,3.57-6,6.93"/><path class="cls-19" d="M650.1,199.11l-22.8-12.4c19.1-27.22,39.28-58.88,60.81-93.12l22.8,12.4c-21.53,34.24-41.72,65.9-60.81,93.12"/></g></g></g><g class="cls-2"><g class="cls-24"><g class="cls-2"><path class="cls-19" d="M523,333.17l-22.8-12.39c.29-.48.58-1,.88-1.53l22.79,12.4c-.29.54-.58,1.05-.87,1.52"/><path class="cls-4" d="M523.9,331.65l-22.79-12.4a66.14,66.14,0,0,0,3.62-8.32l22.8,12.4a66,66,0,0,1-3.63,8.32"/><path class="cls-8" d="M527.53,323.33l-22.8-12.4c.6-1.63,1.21-3.4,1.81-5.29L529.33,318c-.6,1.89-1.2,3.66-1.8,5.29"/></g></g></g><polygon class="cls-25" points="529.68 316.96 506.89 304.56 507.82 304.03 530.62 316.43 529.68 316.96"/><polygon class="cls-26" points="529.33 318.04 506.54 305.64 506.89 304.56 529.68 316.96 529.33 318.04"/><g class="cls-2"><g class="cls-27"><g class="cls-2"><path d="M580.82,50.69,558,38.29c21.26-2.84,41.58-5.63,61.13-8.37,57.69-8.11,108.57-15.91,156.66-24l22.79,12.4c-48.09,8.09-99,15.89-156.66,24-19.54,2.74-39.87,5.52-61.13,8.37"/></g></g></g><g class="cls-2"><g class="cls-28"><g class="cls-2"><path class="cls-13" d="M485.52,325.94l-22.79-12.4c2.63-1.5,5.09-3,7.39-4.59l22.8,12.39c-2.3,1.59-4.77,3.1-7.4,4.6"/><path class="cls-14" d="M492.92,321.34,470.12,309a62.8,62.8,0,0,0,6-4.73L499,316.62a59.89,59.89,0,0,1-6,4.72"/><path class="cls-17" d="M499,316.62l-22.79-12.4a46.61,46.61,0,0,0,3.77-3.8l22.79,12.4a45.05,45.05,0,0,1-3.77,3.8"/><path class="cls-18" d="M502.72,312.82l-22.79-12.4a41.93,41.93,0,0,0,3-3.74l22.79,12.4a43.42,43.42,0,0,1-3,3.74"/><path class="cls-19" d="M505.68,309.08l-22.79-12.4a45.28,45.28,0,0,0,2.67-4.34l22.79,12.4a44.52,44.52,0,0,1-2.67,4.34"/><path class="cls-4" d="M508.35,304.74l-22.79-12.4a49.28,49.28,0,0,0,2.83-6.34l22.79,12.4a47.94,47.94,0,0,1-2.83,6.34"/><path class="cls-8" d="M511.18,298.4,488.39,286a69.88,69.88,0,0,0,3.22-12.66l22.79,12.4a69.06,69.06,0,0,1-3.22,12.66"/></g></g></g><g class="cls-2"><g class="cls-29"><g class="cls-2"><path class="cls-10" d="M573.35,125.57l-22.79-12.4a474.14,474.14,0,0,0,57.4-4.4A375.79,375.79,0,0,0,692,87.19l22.8,12.39a375.21,375.21,0,0,1-84.08,21.59,474.14,474.14,0,0,1-57.4,4.4"/></g></g></g><polygon class="cls-8" points="568.41 130.47 545.62 118.08 545.88 115.66 568.67 128.06 568.41 130.47"/><path d="M798.61,18.32c-5.68,16-11.42,32-17.09,47.66-19.85,26.86-38.95,56.39-57.41,85-15.91,24.6-30.94,47.85-45.63,68.18-31,43.94-60.55,74.74-87.89,91.55l-3.35,5.6,4-.6c42.7-6.47,81.2-23.62,117.44-52.38-5.13,13.25-10.33,26.61-15.5,39.84-35.37,9-73,16.27-115.91,22.3-15.44,2.17-31.56,4.18-48.49,6.05a93,93,0,0,0,4.4-11.35c21.93-12.47,51.11-31.83,83.78-70.71,30.28-35.09,63.1-86.28,99.78-144.67l1.6-6.53-3.5,1.35a375.26,375.26,0,0,1-84.07,21.59,474.47,474.47,0,0,1-57.41,4.4c2.48-23,5-48.15,7.47-74.88,21.26-2.85,41.59-5.63,61.13-8.37C699.64,34.21,750.52,26.41,798.61,18.32Z"/><g class="cls-2"><g class="cls-30"><g class="cls-2"><path d="M580.82,50.69,558,38.29c21.26-2.84,41.58-5.63,61.13-8.37,57.69-8.11,108.57-15.91,156.66-24l22.79,12.4c-48.09,8.09-99,15.89-156.66,24-19.54,2.74-39.87,5.52-61.13,8.37"/></g></g></g><g class="cls-2"><g class="cls-31"><g class="cls-2"><path d="M573.35,125.57l-22.79-12.4c2.48-23,5-48.15,7.47-74.88l22.79,12.4c-2.49,26.73-5,51.89-7.47,74.88"/></g></g></g><g class="cls-2"><g class="cls-32"><g class="cls-2"><path class="cls-10" d="M578.82,46.15,556,33.75c21.9-2.92,42.81-5.78,62.89-8.6C678,16.84,730,8.86,779.09.57L801.89,13c-49.12,8.29-101.07,16.27-160.18,24.58-20.08,2.82-41,5.68-62.89,8.6"/></g></g></g><g class="cls-2"><g class="cls-33"><g class="cls-2"><path class="cls-8" d="M568.67,128.06l-22.79-12.4c2.62-24.24,5.29-51,7.92-79.43l22.79,12.4c-2.63,28.47-5.3,55.19-7.92,79.43"/></g></g></g><polygon class="cls-8" points="576.59 48.63 553.8 36.23 554 34.02 576.8 46.42 576.59 48.63"/><polygon class="cls-6" points="576.8 46.42 554 34.02 556.03 33.75 578.83 46.15 576.8 46.42"/><path class="cls-34" d="M801.89,13l3.38-.57L804,16c-6.13,17.29-12.36,34.67-18.51,51.64-20.23,27.55-39.36,57.14-57.85,85.75-15.95,24.68-31,48-45.78,68.42-28.25,40.07-55.46,69.42-81,87.44,40.4-7.81,77-25.75,111.56-54.63l6.24-5.21-3,7.74c-6.25,16.15-12.62,32.55-18.95,48.74l-.52,1.34-1.28.32c-35.87,9.19-74.09,16.6-117.61,22.71-16.67,2.35-34.13,4.5-52.53,6.49l-4.19.46,2.45-4c2.06-3.39,4.18-8.48,6.3-15.13l.35-1.08.94-.53c21.63-12.23,50.66-31.25,83.26-70,29.42-34.1,61.38-83.71,97-140.41a381.94,381.94,0,0,1-80.16,20,480.14,480.14,0,0,1-60.14,4.48l-2.2,0,.26-2.41c2.62-24.24,5.29-51,7.92-79.43l.21-2.21,2-.27c21.91-2.92,42.81-5.78,62.89-8.6C700.82,29.24,752.77,21.26,801.89,13ZM781.52,66c5.67-15.67,11.41-31.67,17.09-47.65-48.09,8.09-99,15.89-156.66,24-19.54,2.74-39.87,5.52-61.13,8.37-2.49,26.73-5,51.89-7.47,74.88a474.14,474.14,0,0,0,57.4-4.4,375.21,375.21,0,0,0,84.08-21.59l3.5-1.35-1.33,6.1c-37,58.82-69.77,110-100,145.1-32.67,38.88-61.85,58.24-83.78,70.71a93,93,0,0,1-4.4,11.35c16.93-1.87,33.05-3.88,48.49-6.05,42.87-6,80.54-13.3,115.91-22.3,5.17-13.23,10.37-26.59,15.5-39.84-36.24,28.76-74.74,45.91-117.44,52.38l-4,.6,2.69-5.2c28-17.21,57.56-48,88.55-91.95,14.69-20.33,29.72-43.58,45.63-68.18,18.46-28.58,37.56-58.11,57.41-85"/><g class="cls-2"><g class="cls-35"><g class="cls-2"><path class="cls-8" d="M514.4,285.74l-22.79-12.4c8-48.29,16.1-125.48,24.17-229.48l22.79,12.4c-8.07,104-16.21,181.19-24.17,229.48"/></g></g></g><polygon class="cls-6" points="541.02 51.14 518.22 38.74 520.62 38.43 543.41 50.83 541.02 51.14"/><g class="cls-2"><g class="cls-36"><g class="cls-2"><path class="cls-14" d="M381.47,339.76l-22.79-12.4c.64.35,1.29.69,1.95,1l22.79,12.4c-.66-.32-1.31-.66-1.95-1"/><path class="cls-13" d="M383.42,340.77l-22.79-12.4a54.18,54.18,0,0,0,10.42,3.86l22.8,12.4a55,55,0,0,1-10.43-3.86"/><path class="cls-10" d="M393.85,344.63l-22.8-12.4c8.33,2.15,17.52,2.5,27.65,1.08l.89-.13c21.42-3.27,40.66-8.89,57.29-16.74l22.79,12.4c-16.63,7.85-35.87,13.47-57.28,16.74l-.9.13q-15.18,2.13-27.64-1.08"/><path class="cls-13" d="M479.67,328.84l-22.79-12.4q3-1.4,5.85-2.9l22.79,12.4q-2.86,1.5-5.85,2.9"/></g></g></g><g class="cls-2"><g class="cls-37"><g class="cls-2"><path d="M381.47,339.76l-22.79-12.4c-8.13-4.42-15.26-11-21.48-19.79-14.7-20.27-25.51-54.42-28.92-91.34-6.38-70.51-12.9-118.76-19.39-143.55l22.79,12.4c6.49,24.79,13,73,19.39,143.55C334.48,265.55,345.3,299.7,360,320c6.22,8.78,13.35,15.37,21.48,19.79"/></g></g></g><g class="cls-2"><g class="cls-38"><g class="cls-2"><path d="M482.85,63.42,460.06,51c20.51-2.61,38.79-5,55.72-7.16l22.79,12.4c-16.93,2.2-35.2,4.55-55.72,7.16"/></g></g></g><g class="cls-2"><g class="cls-39"><g class="cls-2"><path d="M404.43,302.39,381.63,290c.56.3,1.13.6,1.7.88l22.79,12.4c-.57-.28-1.14-.58-1.69-.88"/><path d="M406.12,303.27l-22.79-12.4a49.24,49.24,0,0,0,9.54,3.51l22.79,12.4a49.49,49.49,0,0,1-9.54-3.51"/><path d="M415.66,306.78l-22.79-12.4a55.23,55.23,0,0,0,5.78,1.16,64.32,64.32,0,0,0,18,.3,39,39,0,0,0,11.19-3.23L450.66,305a38.91,38.91,0,0,1-11.19,3.23,64.32,64.32,0,0,1-18-.3,55.75,55.75,0,0,1-5.78-1.16"/><path d="M450.66,305l-22.79-12.4a33,33,0,0,0,4.52-2.6l22.79,12.4a31.8,31.8,0,0,1-4.52,2.6"/><path d="M455.18,302.41,432.39,290a31.57,31.57,0,0,0,3-2.33l.09-.09,22.8,12.4-.1.09a30.32,30.32,0,0,1-3,2.33"/><path d="M458.24,300l-22.8-12.4a29.27,29.27,0,0,0,2.48-2.5l22.79,12.4a29.16,29.16,0,0,1-2.47,2.5"/><path d="M460.71,297.49l-22.79-12.4a29.89,29.89,0,0,0,2.19-2.79l22.8,12.4a31.76,31.76,0,0,1-2.2,2.79"/><path d="M462.91,294.7l-22.8-12.4a32.63,32.63,0,0,0,2.11-3.42L465,291.28a32.56,32.56,0,0,1-2.1,3.42"/><path d="M465,291.28l-22.79-12.4a39.25,39.25,0,0,0,2.24-5l22.79,12.4a37.9,37.9,0,0,1-2.24,5"/><path d="M467.25,286.28l-22.79-12.4a52.84,52.84,0,0,0,2.9-13.69C451.55,206.33,455.82,136,460.06,51l22.79,12.4c-4.24,84.94-8.51,155.31-12.69,209.17a53.25,53.25,0,0,1-2.91,13.69"/></g></g></g><g class="cls-2"><g class="cls-40"><g class="cls-2"><path class="cls-10" d="M480.78,58.88,458,46.48c22.35-2.84,42.06-5.38,60.23-7.74L541,51.14c-18.18,2.36-37.88,4.9-60.24,7.74"/></g></g></g><g class="cls-2"><g class="cls-41"><g class="cls-2"><path class="cls-14" d="M406.87,298l-22.8-12.4c.51.27,1,.54,1.56.8l22.79,12.4c-.53-.26-1.05-.53-1.55-.8"/><path class="cls-13" d="M408.42,298.83l-22.79-12.4a45.1,45.1,0,0,0,8.72,3.21L417.14,302a45.59,45.59,0,0,1-8.72-3.21"/><path class="cls-10" d="M417.14,302l-22.79-12.4a51.47,51.47,0,0,0,5.45,1.1,60.5,60.5,0,0,0,16.9.3,34,34,0,0,0,9.84-2.82l22.79,12.4a34,34,0,0,1-9.84,2.82,60.5,60.5,0,0,1-16.9-.3,52,52,0,0,1-5.45-1.1"/><path class="cls-13" d="M449.33,300.62l-22.79-12.4a27.34,27.34,0,0,0,3.81-2.19l22.8,12.4a27.46,27.46,0,0,1-3.82,2.19"/><path class="cls-14" d="M453.15,298.43,430.35,286a25.57,25.57,0,0,0,2.46-1.94l.07-.06,22.79,12.4-.07.06a24.27,24.27,0,0,1-2.45,1.94"/><path class="cls-17" d="M455.67,296.43,432.88,284a25.69,25.69,0,0,0,2-2l22.79,12.4a24.08,24.08,0,0,1-2,2"/><path class="cls-18" d="M457.68,294.4,434.89,282a27.53,27.53,0,0,0,1.8-2.29l22.79,12.4a23.88,23.88,0,0,1-1.8,2.29"/><path class="cls-19" d="M459.48,292.11l-22.79-12.4a30.14,30.14,0,0,0,1.77-2.87l22.79,12.4a26.55,26.55,0,0,1-1.77,2.87"/><path class="cls-4" d="M461.25,289.24l-22.79-12.4a33.08,33.08,0,0,0,1.9-4.26L463.15,285a32.62,32.62,0,0,1-1.9,4.27"/><path class="cls-8" d="M463.15,285l-22.79-12.39a47.54,47.54,0,0,0,2.57-12.19c4.22-54.28,8.52-125.38,12.8-211.32l22.79,12.4c-4.27,85.94-8.58,157-12.79,211.32A47,47,0,0,1,463.15,285"/></g></g></g><polygon class="cls-6" points="478.64 59.15 455.85 46.75 457.99 46.48 480.78 58.88 478.64 59.15"/><polygon class="cls-42" points="478.52 61.47 455.73 49.07 455.85 46.75 478.64 59.15 478.52 61.47"/><g class="cls-2"><g class="cls-43"><g class="cls-2"><path class="cls-10" d="M267,356.34l-22.79-12.4c12.08-1.58,24.49-3.06,37.81-4.5l22.79,12.4c-13.32,1.44-25.73,2.92-37.81,4.5"/></g></g></g><polygon class="cls-44" points="263.94 361.54 241.15 349.14 240.61 347.7 263.4 360.1 263.94 361.54"/><g class="cls-2"><g class="cls-45"><g class="cls-2"><path d="M381.47,339.76l-22.79-12.4c-8.13-4.42-15.26-11-21.48-19.79-14.7-20.27-25.51-54.42-28.92-91.34-6.38-70.51-12.9-118.76-19.39-143.55l22.79,12.4c6.49,24.79,13,73,19.39,143.55C334.48,265.55,345.3,299.7,360,320c6.22,8.78,13.35,15.37,21.48,19.79"/></g></g></g><g class="cls-2"><g class="cls-46"><g class="cls-2"><path class="cls-8" d="M379.11,344.22l-22.8-12.4c-8.61-4.69-16.16-11.67-22.75-21C318.44,290,307.33,255,303.84,217.33l22.8,12.4c3.48,37.71,14.6,72.67,29.71,93.51,6.59,9.31,14.15,16.29,22.76,21"/></g></g></g><g class="cls-2"><g class="cls-47"><g class="cls-2"><path d="M267,356.34l-22.8-12.4c-35.72-93.82-76.38-153.89-120.9-178.58l22.79,12.4c44.52,24.69,85.19,84.76,120.91,178.58"/></g></g></g><g class="cls-2"><g class="cls-48"><g class="cls-2"><path class="cls-8" d="M404.43,302.39,381.63,290c-17.56-9.55-27.73-29.81-29.1-58.81-2.77-66.09-5.61-121.77-8.43-165.54L366.9,78c2.81,43.77,5.65,99.45,8.43,165.54,1.36,29,11.53,49.25,29.1,58.81"/></g></g></g><polygon class="cls-6" points="369 72.97 346.21 60.57 348.25 60.32 371.05 72.72 369 72.97"/><g class="cls-2"><g class="cls-49"><g class="cls-2"><path d="M267,356.34l-22.8-12.4c-35.72-93.82-76.38-153.89-120.9-178.58l22.79,12.4c44.52,24.69,85.19,84.76,120.91,178.58"/></g></g></g><g class="cls-2"><g class="cls-50"><g class="cls-2"><path d="M267,356.34l-22.8-12.4c-35.72-93.82-76.38-153.89-120.9-178.58l22.79,12.4c44.52,24.69,85.19,84.76,120.91,178.58"/></g></g></g><polygon points="250.49 230.03 227.69 217.63 227.77 215.13 250.56 227.53 250.49 230.03"/><polygon points="245.15 230.39 222.36 217.99 227.69 217.63 250.49 230.03 245.15 230.39"/><polygon class="cls-51" points="245.15 230.38 222.36 217.99 222.59 216.05 245.39 228.45 245.15 230.38"/><path d="M311.68,85.08c16.62-2.14,34.3-4.4,55.22-7,2.82,43.77,5.65,99.45,8.43,165.54,1.75,37.36,18.13,60.21,46.11,64.36a64.32,64.32,0,0,0,18,.3c7.52-1.06,13.76-3.78,18.67-8.16,6.91-6.18,10.95-15.41,12-27.49,4.18-53.86,8.45-124.23,12.69-209.17,20.52-2.61,38.79-5,55.72-7.16-8.07,104-16.21,181.19-24.17,229.48-3.61,22-13.35,31.38-28.88,40.2-17.92,9.37-39.16,16-63.13,19.64l-.9.13C395,349.43,374.89,341,360,320c-14.69-20.27-25.51-54.42-28.92-91.34C324.69,158.11,318.17,109.87,311.68,85.08Z"/><g class="cls-2"><g class="cls-52"><g class="cls-2"><path d="M311.68,85.08l-22.79-12.4c16.62-2.14,34.3-4.4,55.21-7L366.9,78c-20.92,2.64-38.6,4.9-55.22,7"/></g></g></g><g class="cls-2"><g class="cls-53"><g class="cls-2"><path class="cls-10" d="M308.75,80.66,286,68.26c18-2.33,37.17-4.77,60.25-7.69L369,73c-23.07,2.91-42.22,5.36-60.25,7.69"/></g></g></g><g class="cls-2"><g class="cls-54"><g class="cls-2"><path class="cls-8" d="M326.64,229.73l-22.8-12.4c-6.61-73.19-13.36-122.2-20-145.68l22.79,12.4c6.68,23.48,13.43,72.49,20.05,145.68"/></g></g></g><polygon class="cls-44" points="306.59 84.05 283.8 71.65 282.95 68.65 305.74 81.05 306.59 84.05"/><polygon class="cls-6" points="305.74 81.05 282.95 68.65 285.96 68.26 308.75 80.66 305.74 81.05"/><path class="cls-34" d="M541,51.14l2.39-.31-.2,2.59C535.06,158.9,526.83,237.14,518.78,286c-4,24.1-15.07,34.79-31.7,44.23-18.46,9.66-40.18,16.43-64.65,20.16l-1,.15c-28,3.94-49.34-5-65.12-27.28-15.11-20.84-26.23-55.8-29.71-93.51-6.62-73.19-13.37-122.2-20.05-145.68l-.85-3,3-.39c18-2.33,37.18-4.78,60.25-7.69l2.05-.25.15,2.17C374.06,119,377,175.5,379.77,242.72c1,20.33,7.8,55.23,42.82,60.42a60.5,60.5,0,0,0,16.9.3c6.57-.92,12-3.24,16.11-6.95,5.79-5.17,9.19-13.14,10.13-23.7,4.21-54.28,8.52-125.38,12.79-211.32l.12-2.32,2.14-.27C503.14,56,522.84,53.5,541,51.14ZM514.4,285.74c8-48.29,16.1-125.48,24.17-229.48-16.93,2.2-35.2,4.55-55.72,7.16-4.24,84.94-8.51,155.31-12.69,209.17-1.07,12.08-5.11,21.31-12,27.49-4.91,4.38-11.15,7.1-18.67,8.16a64.32,64.32,0,0,1-18-.3c-28-4.15-44.36-27-46.11-64.36-2.78-66.09-5.62-121.77-8.43-165.54-20.92,2.64-38.6,4.9-55.22,7,6.49,24.79,13,73,19.39,143.55C334.48,265.55,345.3,299.7,360,320c14.9,21,35,29.46,61.5,25.74l.9-.13c24-3.66,45.21-10.27,63.13-19.64,15.53-8.82,25.27-18.24,28.88-40.2"/><g class="cls-2"><g class="cls-55"><g class="cls-2"><path class="cls-10" d="M136.74,380.57,114,368.17c12.46-3.16,25.39-6.16,38.51-8.92l22.8,12.4c-13.13,2.76-26.06,5.76-38.52,8.92"/></g></g></g><polygon class="cls-44" points="133.91 386.12 111.11 373.73 110.48 372.16 133.27 384.56 133.91 386.12"/><g class="cls-2"><g class="cls-56"><g class="cls-2"><path d="M250.56,227.53l-22.79-12.4c0-1.25-8.77-43.3-11.51-55.5-8.6-40.36-17.22-64.7-26.19-73.82l22.8,12.4c9,9.12,17.59,33.46,26.18,73.82,2.74,12.2,11.56,54.24,11.51,55.5"/></g></g></g><g class="cls-2"><g class="cls-57"><g class="cls-2"><path class="cls-8" d="M243.1,213.22l-22.79-12.4c-2.48-12.06-5.95-28.66-8.39-39.5-11.51-54-21.26-70.41-27.84-74l22.79,12.4c6.58,3.57,16.34,20,27.85,74,2.43,10.84,5.91,27.44,8.38,39.5"/></g></g></g><g class="cls-2"><g class="cls-58"><g class="cls-2"><path class="cls-8" d="M245.39,228.45l-22.8-12.4c-1.74-3.84-14.52-29.89-25.08-42.51l22.79,12.4c10.56,12.62,23.34,38.67,25.09,42.51"/></g></g></g><g class="cls-2"><g class="cls-59"><g class="cls-2"><path class="cls-8" d="M304.81,351.84,282,339.44C268.62,186,255,98.33,241.56,78.86l22.8,12.4c13.45,19.47,27.05,107.1,40.45,260.58"/></g></g></g><polygon class="cls-6" points="265.54 86.3 242.74 73.9 243.84 73.76 266.63 86.16 265.54 86.3"/><g class="cls-2"><g class="cls-60"><g class="cls-2"><path d="M250.56,227.53l-22.79-12.4c0-1.25-8.77-43.3-11.51-55.5-8.6-40.36-17.22-64.7-26.19-73.82l22.8,12.4c9,9.12,17.59,33.46,26.18,73.82,2.74,12.2,11.56,54.24,11.51,55.5"/></g></g></g><g class="cls-2"><g class="cls-61"><g class="cls-2"><path d="M212.87,98.21l-22.8-12.4c16.43-2.27,33.35-4.55,51.49-7l22.8,12.4c-18.15,2.4-35.07,4.68-51.49,6.95"/></g></g></g><g class="cls-2"><g class="cls-62"><g class="cls-2"><path d="M267,356.34l-22.8-12.4c-35.72-93.82-76.38-153.89-120.9-178.58l22.79,12.4c44.52,24.69,85.19,84.76,120.91,178.58"/></g></g></g><g class="cls-2"><g class="cls-63"><g class="cls-2"><path class="cls-10" d="M206.11,94.33l-22.8-12.4c18.89-2.61,38.33-5.24,59.43-8l22.8,12.4c-21.1,2.79-40.54,5.42-59.43,8"/></g></g></g><g class="cls-2"><g class="cls-64"><g class="cls-2"><path class="cls-8" d="M220.3,185.94l-22.79-12.4c-15.68-19.71-32.42-34.32-50.9-44.36l22.8,12.4c18.47,10,35.21,24.65,50.89,44.36"/></g></g></g><polygon class="cls-6" points="193.91 96.02 171.12 83.62 183.31 81.93 206.11 94.33 193.91 96.02"/><g class="cls-2"><g class="cls-65"><g class="cls-2"><path d="M267,356.34l-22.8-12.4c-35.72-93.82-76.38-153.89-120.9-178.58l22.79,12.4c44.52,24.69,85.19,84.76,120.91,178.58"/></g></g></g><g class="cls-2"><g class="cls-66"><g class="cls-2"><path class="cls-8" d="M263.4,360.1l-22.79-12.4c-35.52-93.76-75.81-153.64-119.77-178l22.79,12.4c44,24.35,84.25,84.23,119.77,178"/></g></g></g><g class="cls-2"><g class="cls-67"><g class="cls-2"><path d="M146.1,177.76l-22.79-12.4c-7.25-4.65-15.94-9.82-20.47-12.49-4.81-2.83-7.61-4.48-9.33-5.41l22.8,12.4c1.71.93,4.52,2.58,9.32,5.41,4.53,2.67,13.22,7.84,20.47,12.49"/></g></g></g><g class="cls-2"><g class="cls-68"><g class="cls-2"><path class="cls-8" d="M143.63,182.11l-22.79-12.4c-8.4-5.38-18.94-11.63-25.4-15.37l22.79,12.4c6.46,3.74,17,10,25.4,15.37"/></g></g></g><g class="cls-2"><g class="cls-69"><g class="cls-2"><path d="M146.1,177.76l-22.79-12.4c-7.25-4.65-15.94-9.82-20.47-12.49-4.81-2.83-7.61-4.48-9.33-5.41l22.8,12.4c1.71.93,4.52,2.58,9.32,5.41,4.53,2.67,13.22,7.84,20.47,12.49"/></g></g></g><g class="cls-2"><g class="cls-70"><g class="cls-2"><path class="cls-8" d="M175.26,371.65l-22.8-12.4C136.9,289.12,121.11,231.84,105.51,189c-5.35-15.21-13.78-31.51-16.54-36.58l22.8,12.4c2.75,5.07,11.18,21.37,16.54,36.58,15.59,42.84,31.38,100.12,46.95,170.25"/></g></g></g><polygon points="110.27 165.73 87.47 153.33 88.97 152.42 111.77 164.82 110.27 165.73"/><g class="cls-2"><g class="cls-71"><g class="cls-2"><path class="cls-10" d="M113,158.89l-22.8-12.4a2.39,2.39,0,0,1,1.11.06L114.09,159a2.35,2.35,0,0,0-1.1-.06"/><path class="cls-13" d="M114.09,159,91.3,146.55a9,9,0,0,1,1.67.68l22.79,12.39a9.51,9.51,0,0,0-1.67-.67"/><path class="cls-14" d="M115.76,159.62,93,147.23c.37.18.8.4,1.29.67l22.8,12.4-1.3-.68"/></g></g></g><polygon class="cls-25" points="112.1 159.38 89.3 146.98 90.19 146.49 112.99 158.89 112.1 159.38"/><polygon class="cls-42" points="110.27 165.73 87.47 153.33 87.8 147.44 110.59 159.84 110.27 165.73"/><polygon class="cls-72" points="110.59 159.84 87.8 147.44 89.3 146.98 112.1 159.38 110.59 159.84"/><g class="cls-2"><g class="cls-73"><g class="cls-2"><path d="M86.88,116.67l-22.79-12.4c7.13,1.78,14.2,3.33,21,4.83,7.63,1.68,15.07,3.31,22.37,5.2l22.79,12.4c-7.29-1.89-14.74-3.52-22.37-5.2-6.84-1.5-13.92-3-21.05-4.83"/><path d="M130.3,126.7l-22.79-12.4a180.23,180.23,0,0,1,27.22,9.14q3.51,1.49,6.94,3.18L164.46,139c-2.28-1.13-4.6-2.19-6.94-3.18a179.86,179.86,0,0,0-27.22-9.14"/><path d="M164.46,139l-22.79-12.4c1.66.81,3.31,1.67,5,2.56l22.79,12.4c-1.64-.89-3.29-1.75-4.95-2.56"/></g></g></g><g class="cls-2"><g class="cls-74"><g class="cls-2"><path d="M86.88,116.67l-22.79-12.4c7.13,1.78,14.2,3.33,21,4.83,7.63,1.68,15.07,3.31,22.37,5.2l22.79,12.4c-7.29-1.89-14.74-3.52-22.37-5.2-6.84-1.5-13.92-3-21.05-4.83"/></g></g></g><g class="cls-2"><g class="cls-75"><g class="cls-2"><path class="cls-10" d="M87.23,111.8,64.44,99.4c8,1.85,15.17,3.43,22.11,4.95,7.68,1.68,15.18,3.33,22.54,5.24l22.8,12.4c-7.36-1.91-14.86-3.56-22.55-5.24-6.94-1.52-14.11-3.1-22.11-5"/><path class="cls-13" d="M131.89,122l-22.8-12.4a182.9,182.9,0,0,1,27.73,9.31q3.6,1.53,7.12,3.26l22.79,12.4c-2.34-1.15-4.72-2.24-7.12-3.26A183.15,183.15,0,0,0,131.89,122"/><path class="cls-14" d="M166.73,134.56l-22.79-12.4c1.7.84,3.4,1.72,5.08,2.63l22.79,12.4q-2.52-1.37-5.08-2.63"/></g></g></g><g class="cls-2"><g class="cls-76"><g class="cls-2"><path d="M136.74,380.57,114,368.17C78.39,281,42.34,195.37,6.76,113.58L29.55,126c35.58,81.79,71.63,167.41,107.19,254.59"/></g></g></g><g class="cls-2"><g class="cls-77"><g class="cls-2"><path d="M29.55,126,6.76,113.58c18.55-3.12,37.81-6.25,57.33-9.31l22.79,12.4c-19.52,3.06-38.78,6.19-57.33,9.31"/></g></g></g><path d="M212.87,98.21c16.42-2.27,33.34-4.55,51.49-6.95,13.45,19.47,27.05,107.1,40.45,260.58-13.32,1.44-25.73,2.92-37.8,4.5-35.72-93.82-76.39-153.89-120.91-178.58-7.25-4.65-15.94-9.82-20.47-12.49-9.8-5.77-11.28-6.64-12.18-6.52l-1.35.63-1.51.46-.32,5.89,1.5-.91c2.75,5.07,11.18,21.37,16.54,36.58,15.59,42.84,31.38,100.12,46.95,170.25-13.13,2.76-26.06,5.76-38.52,8.92C101.18,293.39,65.13,207.77,29.55,126c18.55-3.12,37.81-6.25,57.33-9.31,7.13,1.78,14.21,3.33,21.05,4.83,17.36,3.81,33.76,7.4,49.59,14.34,23.27,9.87,43.8,26.25,62.78,50.1,10.56,12.62,23.34,38.67,25.09,42.51l-.24,1.94,5.34-.36.07-2.5c.05-1.26-8.77-43.3-11.51-55.5C230.46,131.67,221.84,107.33,212.87,98.21Z"/><g class="cls-2"><g class="cls-78"><g class="cls-2"><path class="cls-8" d="M133.27,384.56l-22.79-12.4C74.28,283.37,37.56,196.19,1.35,113l22.79,12.4c36.21,83.17,72.93,170.36,109.13,259.15"/></g></g></g><g class="cls-2"><g class="cls-79"><g class="cls-2"><path class="cls-10" d="M26.12,121.76,3.32,109.37C23,106,43.59,102.68,64.44,99.4l22.79,12.4c-20.84,3.28-41.41,6.62-61.11,10"/></g></g></g><path class="cls-34" d="M309.48,353.44l.23,2.67-2.52.27c-14.81,1.6-28.46,3.21-41.74,5l-1.51.2-.54-1.44c-35.52-93.76-75.81-153.64-119.77-178-8.4-5.38-18.94-11.63-25.4-15.37.83,1.64,1.8,3.62,3,6a258.76,258.76,0,0,1,11.29,26.4c15.86,43.54,31.9,101.93,47.7,173.49l.6,2.68-2.63.54c-14.53,3-28.87,6.32-42.59,9.84l-1.65.42-.64-1.56c-36.2-88.79-72.92-176-109.13-259.15l-1.35-3.08,3.33-.57c19.7-3.34,40.27-6.68,61.11-10,8,1.85,15.17,3.43,22.11,5,17.55,3.84,34.13,7.48,50.27,14.55,23.83,10.11,44.83,26.85,64.18,51.17,6.16,7.36,12.86,18.85,17.4,27.19l1.91,3.56c-2.47-12.06-5.95-28.66-8.38-39.5-12.47-58.49-22.87-72.86-29.41-74.62L193.91,96l12.2-1.69c18.89-2.61,38.33-5.24,59.43-8l1.09-.14.66.85C281.73,105.64,295.52,192.79,309.48,353.44ZM267,356.34c12.08-1.58,24.49-3.06,37.81-4.5-13.4-153.48-27-241.11-40.45-260.58-18.15,2.4-35.07,4.68-51.49,6.95,9,9.12,17.59,33.46,26.18,73.82,2.74,12.2,11.56,54.24,11.51,55.5l-.07,2.49-5.34.37.24-1.94c-1.75-3.84-14.53-29.89-25.09-42.51-19-23.85-39.51-40.23-62.78-50.1-15.83-6.94-32.23-10.53-49.59-14.34-6.84-1.5-13.92-3-21.05-4.83-19.52,3.06-38.78,6.19-57.33,9.31,35.58,81.79,71.63,167.41,107.19,254.59,12.46-3.16,25.39-6.16,38.52-8.92-15.57-70.13-31.36-127.41-46.95-170.25-5.36-15.21-13.79-31.51-16.54-36.58l-1.5.91.32-5.89,1.51-.46.89-.49c1.36-.26,2.84.61,12.64,6.38,4.53,2.67,13.22,7.84,20.47,12.49,44.52,24.69,85.19,84.76,120.9,178.58"/><polygon class="cls-44" points="24.14 125.41 1.35 113.01 0 109.93 22.79 122.33 24.14 125.41"/><polygon class="cls-6" points="22.79 122.33 0 109.93 3.33 109.36 26.12 121.77 22.79 122.33"/></g></g></g></svg>